<?xml version="1.0" encoding="UTF-8"?>
<svg width="512" height="512" viewBox="0 0 512 512" xmlns="http://www.w3.org/2000/svg">
  <defs>
    <linearGradient id="bg" x1="0%" y1="0%" x2="100%" y2="100%">
      <stop offset="0%" style="stop-color:#0a0a0f"/>
      <stop offset="100%" style="stop-color:#1a1a2e"/>
    </linearGradient>
    <linearGradient id="ring1" x1="0%" y1="0%" x2="100%" y2="100%">
      <stop offset="0%" style="stop-color:#3b82f6"/>
      <stop offset="100%" style="stop-color:#2563eb"/>
    </linearGradient>
    <linearGradient id="ring2" x1="0%" y1="0%" x2="100%" y2="100%">
      <stop offset="0%" style="stop-color:#8b5cf6"/>
      <stop offset="100%" style="stop-color:#7c3aed"/>
    </linearGradient>
    <linearGradient id="ring3" x1="0%" y1="0%" x2="100%" y2="100%">
      <stop offset="0%" style="stop-color:#06b6d4"/>
      <stop offset="100%" style="stop-color:#0891b2"/>
    </linearGradient>
    <linearGradient id="center" x1="0%" y1="0%" x2="100%" y2="100%">
      <stop offset="0%" style="stop-color:#3b82f6"/>
      <stop offset="50%" style="stop-color:#8b5cf6"/>
      <stop offset="100%" style="stop-color:#06b6d4"/>
    </linearGradient>
  </defs>
  
  <!-- Background -->
  <circle cx="256" cy="256" r="250" fill="url(#bg)"/>
  <circle cx="256" cy="256" r="248" fill="none" stroke="#1e293b" stroke-width="4"/>
  
  <!-- Outer ring -->
  <circle cx="256" cy="256" r="200" fill="none" stroke="url(#ring1)" stroke-width="12" stroke-linecap="round" stroke-dasharray="200 800" transform="rotate(-90 256 256)"/>
  
  <!-- Middle ring -->
  <circle cx="256" cy="256" r="160" fill="none" stroke="url(#ring2)" stroke-width="10" stroke-linecap="round" stroke-dasharray="150 650" transform="rotate(30 256 256)"/>
  
  <!-- Inner ring -->
  <circle cx="256" cy="256" r="120" fill="none" stroke="url(#ring3)" stroke-width="8" stroke-linecap="round" stroke-dasharray="100 500" transform="rotate(120 256 256)"/>
  
  <!-- Center circle -->
  <circle cx="256" cy="256" r="70" fill="url(#center)"/>
  
  <!-- Center icon (node symbol) -->
  <g fill="#ffffff">
    <circle cx="256" cy="230" r="12"/>
    <circle cx="230" cy="270" r="12"/>
    <circle cx="282" cy="270" r="12"/>
    <line x1="256" y1="230" x2="230" y2="270" stroke="#ffffff" stroke-width="4"/>
    <line x1="256" y1="230" x2="282" y2="270" stroke="#ffffff" stroke-width="4"/>
    <line x1="230" y1="270" x2="282" y2="270" stroke="#ffffff" stroke-width="4"/>
  </g>
</svg>